<?xml version="1.0" encoding="utf-8"?>
<!-- Generator: Adobe Illustrator 28.3.0, SVG Export Plug-In . SVG Version: 6.00 Build 0)  -->
<svg version="1.1" id="Layer_2_00000001658022751664686460000003528002604335152769_"
	 xmlns="http://www.w3.org/2000/svg" xmlns:xlink="http://www.w3.org/1999/xlink" x="0px" y="0px" viewBox="0 0 340 331.3"
	 style="enable-background:new 0 0 340 331.3;" xml:space="preserve">
<style type="text/css">
	.st0{fill:#1E3101;}
	.st1{fill:#99E83F;}
</style>
<g>
	<g>
		<g>
			<path class="st0" d="M60.3,0h218.9c33.1,0,60,26.8,60,60v210.3c0,33.1-26.9,60-60,60h0H60.3c-33.1,0-60-26.8-60-60v0V60
				C0.3,26.8,27.2,0,60.3,0"/>
		</g>
	</g>
</g>
<path class="st1" d="M277.8,137v-25.3c0-11.5-6.6-22-16.9-27l-78.3-38.1c-8.3-4-18-4-26.3,0L78,84.7c-10.2,5-16.7,15.2-16.9,26.6
	c0,0.2,0,0.3,0,0.5v27.8v7.7c0,7.8,5.3,14.6,12.8,16.6l153.6,40.1c1.3,0.3,1.4,2,0.2,2.6l-50.8,24.1c-4.7,2.3-10.2,2.3-14.9,0
	l-44.8-21.6c-5.9-2.9-9.7-8.9-9.7-15.5v-2.8H61.1v25.1c0,11.5,6.6,22.1,17,27.1l78.3,37.8c8.3,4,17.9,4,26.1,0l78.3-37.8
	c9.9-4.8,16.4-14.6,17-25.6c0-0.5,0-1,0-1.5v-27.6v-6.8c0-7.8-5.3-14.6-12.8-16.6l-154.4-40.5l0.5,0.1c-0.2,0-0.3-0.1-0.4-0.2
	c-0.8-0.5-0.8-1.9,0.2-2.4l51.2-25.1c4.7-2.3,10.3-2.3,15,0l44.8,21.8c5.9,2.9,9.7,8.9,9.7,15.5v3.1H277.8z"/>
</svg>
